<?xml version="1.0" encoding="UTF-8"?>
<svg id="Layer_1" data-name="Layer 1" xmlns="http://www.w3.org/2000/svg" viewBox="0 0 670.17 387.16">
  <defs>
    <style>
      .cls-1 {
        fill: #6b6b6e;
        stroke-width: 0px;
      }
    </style>
  </defs>
  <g>
    <path class="cls-1" d="m49.51,172.97c3.91-19.35,19.03-35.14,38.38-38.74,26.32-4.9,53.09,14.14,57.04,42.24.09.64.8.93,1.32.54,8.55-6.49,19.47-8.51,28.63-4.85,12.73,5.09,20.53,20.56,16.78,36.41-.18.78.46,1.46,1.25,1.32,17.27-3.07,34.15,7.41,38.81,23.59,5.14,17.83-3.4,41.59-25.04,42.15l-170.14-.38c-26.89-.59-41.03-30.25-35.25-52.88,5.01-19.64,25.1-33.73,47.27-31.49.32.03.58-.24.53-.56-.89-5.94-.7-11.79.43-17.35Z"/>
    <path class="cls-1" d="m60.12,322.6c-3.44,7.52-12.33,10.83-19.85,7.39-7.52-3.44-10.83-12.33-7.39-19.85,3.44-7.52,27.22-23.52,27.22-23.52,0,0,3.46,28.45.02,35.98Z"/>
    <path class="cls-1" d="m120.12,322.6c-3.44,7.52-12.33,10.83-19.85,7.39s-10.83-12.33-7.39-19.85,27.22-23.52,27.22-23.52c0,0,3.46,28.45.02,35.98Z"/>
    <path class="cls-1" d="m180.12,322.6c-3.44,7.52-12.33,10.83-19.85,7.39-7.52-3.44-10.83-12.33-7.39-19.85,3.44-7.52,27.22-23.52,27.22-23.52,0,0,3.46,28.45.02,35.98Z"/>
    <path class="cls-1" d="m80.12,374.61c-3.44,7.52-12.33,10.83-19.85,7.39s-10.83-12.33-7.39-19.85,27.22-23.52,27.22-23.52c0,0,3.46,28.45.02,35.98Z"/>
    <path class="cls-1" d="m140.12,374.61c-3.44,7.52-12.33,10.83-19.85,7.39s-10.83-12.33-7.39-19.85c3.44-7.52,27.22-23.52,27.22-23.52,0,0,3.46,28.45.02,35.98Z"/>
  </g>
  <g>
    <path class="cls-1" d="m401.75,79.67c5.71-28.28,27.81-51.36,56.09-56.62,38.47-7.16,77.6,20.66,83.37,61.74.13.94,1.17,1.36,1.93.79,12.49-9.48,28.45-12.44,41.84-7.08,18.6,7.44,30,30.05,24.53,53.21-.27,1.14.67,2.13,1.82,1.92,25.24-4.49,49.91,10.83,56.73,34.48,7.52,26.06-4.97,60.79-36.59,61.61l-248.67-.56c-39.31-.86-59.96-44.21-51.53-77.29,7.32-28.7,36.69-49.29,69.09-46.02.47.05.85-.35.78-.82-1.31-8.68-1.02-17.23.62-25.35Z"/>
    <path class="cls-1" d="m417.26,298.35c-5.03,10.99-18.01,15.83-29.01,10.81-10.99-5.03-15.83-18.01-10.81-29.01,5.03-10.99,39.79-34.38,39.79-34.38,0,0,5.06,41.58.03,52.58Z"/>
    <path class="cls-1" d="m504.95,298.35c-5.03,10.99-18.01,15.83-29.01,10.81-10.99-5.03-15.83-18.01-10.81-29.01,5.03-10.99,39.79-34.38,39.79-34.38,0,0,5.06,41.58.03,52.58Z"/>
    <path class="cls-1" d="m592.65,298.35c-5.03,10.99-18.01,15.83-29.01,10.81-10.99-5.03-15.83-18.01-10.81-29.01,5.03-10.99,39.79-34.38,39.79-34.38,0,0,5.06,41.58.03,52.58Z"/>
    <path class="cls-1" d="m446.49,374.37c-5.03,10.99-18.01,15.83-29.01,10.81-10.99-5.03-15.83-18.01-10.81-29.01,5.03-10.99,39.79-34.38,39.79-34.38,0,0,5.06,41.58.03,52.58Z"/>
    <path class="cls-1" d="m534.18,374.37c-5.03,10.99-18.01,15.83-29.01,10.81-10.99-5.03-15.83-18.01-10.81-29.01,5.03-10.99,39.79-34.38,39.79-34.38,0,0,5.06,41.58.03,52.58Z"/>
  </g>
  <g>
    <path class="cls-1" d="m203.41,25.67c2.66-12.57,12.97-22.84,26.16-25.17,17.94-3.18,36.19,9.19,38.88,27.45.06.42.55.61.9.35,5.83-4.22,13.27-5.53,19.51-3.15,8.68,3.31,13.99,13.36,11.44,23.66-.13.51.31.95.85.86,11.77-2,23.28,4.81,26.46,15.33,3.51,11.59-2.32,27.03-17.07,27.39l-115.98-.25c-18.33-.38-27.97-19.66-24.03-34.37,3.41-12.76,17.11-21.92,32.22-20.46.22.02.4-.15.36-.36-.61-3.86-.47-7.66.29-11.27Z"/>
    <path class="cls-1" d="m210.65,122.91c-2.34,4.89-8.4,7.04-13.53,4.8-5.13-2.24-7.38-8.01-5.04-12.9s18.56-15.28,18.56-15.28c0,0,2.36,18.49.01,23.38Z"/>
    <path class="cls-1" d="m251.55,122.91c-2.34,4.89-8.4,7.04-13.53,4.8s-7.38-8.01-5.04-12.9,18.56-15.28,18.56-15.28c0,0,2.36,18.49.01,23.38Z"/>
    <path class="cls-1" d="m292.45,122.91c-2.34,4.89-8.4,7.04-13.53,4.8-5.13-2.24-7.38-8.01-5.04-12.9s18.56-15.28,18.56-15.28c0,0,2.36,18.49.01,23.38Z"/>
    <path class="cls-1" d="m224.28,156.71c-2.34,4.89-8.4,7.04-13.53,4.8-5.13-2.24-7.38-8.01-5.04-12.9s18.56-15.28,18.56-15.28c0,0,2.36,18.49.01,23.38Z"/>
    <path class="cls-1" d="m265.18,156.71c-2.34,4.89-8.4,7.04-13.53,4.8s-7.38-8.01-5.04-12.9c2.34-4.89,18.56-15.28,18.56-15.28,0,0,2.36,18.49.01,23.38Z"/>
  </g>
</svg>