<?xml version="1.0" encoding="UTF-8"?>
<svg id="Layer_1" data-name="Layer 1" xmlns="http://www.w3.org/2000/svg" viewBox="0 0 586.38 398.89">
  <defs>
    <style>
      .cls-1 {
        fill: #6b6b6e;
        stroke-width: 0px;
      }
    </style>
  </defs>
  <g>
    <path class="cls-1" d="m48.14,169.77c3.8-18.81,18.5-34.17,37.32-37.67,25.59-4.76,51.63,13.75,55.47,41.08.09.63.78.91,1.28.53,8.31-6.31,18.93-8.28,27.83-4.71,12.38,4.95,19.96,19.99,16.32,35.4-.18.76.44,1.42,1.21,1.28,16.79-2.99,33.2,7.2,37.74,22.94,5,17.34-3.31,40.44-24.34,40.99l-165.44-.37c-26.15-.57-39.89-29.42-34.28-51.42,4.87-19.09,24.41-32.79,45.96-30.62.31.03.56-.23.52-.54-.87-5.78-.68-11.46.41-16.87Z"/>
    <polygon class="cls-1" points="47.41 281.74 32.49 330.72 47.41 330.72 28.23 386.83 78.54 313.17 58.37 313.17 71.76 281.74 47.41 281.74"/>
    <polygon class="cls-1" points="98.03 293.8 83.12 342.78 98.03 342.78 78.85 398.89 129.17 325.23 108.99 325.23 122.39 293.8 98.03 293.8"/>
    <polygon class="cls-1" points="158.28 279.59 143.36 328.57 158.28 328.57 139.1 384.68 189.41 311.02 169.24 311.02 182.63 279.59 158.28 279.59"/>
  </g>
  <g>
    <path class="cls-1" d="m191.82,24c2.37-11.75,11.56-21.35,23.31-23.53,15.99-2.97,32.25,8.59,34.65,25.66.05.39.49.57.8.33,5.19-3.94,11.83-5.17,17.39-2.94,7.73,3.09,12.47,12.49,10.2,22.12-.11.47.28.88.76.8,10.49-1.87,20.74,4.5,23.58,14.33,3.12,10.83-2.07,25.27-15.21,25.61l-103.36-.23c-16.34-.36-24.92-18.38-21.42-32.13,3.04-11.93,15.25-20.49,28.72-19.13.2.02.35-.14.32-.34-.54-3.61-.42-7.16.26-10.54Z"/>
    <polygon class="cls-1" points="191.36 93.96 182.04 124.56 191.36 124.56 179.38 159.61 210.81 113.59 198.21 113.59 206.58 93.96 191.36 93.96"/>
    <polygon class="cls-1" points="222.99 101.49 213.67 132.09 222.99 132.09 211.01 167.14 242.44 121.13 229.83 121.13 238.2 101.49 222.99 101.49"/>
    <polygon class="cls-1" points="260.62 92.61 251.31 123.21 260.62 123.21 248.64 158.26 280.08 112.25 267.47 112.25 275.84 92.61 260.62 92.61"/>
  </g>
  <g>
    <path class="cls-1" d="m359.3,98.13c4.83-23.92,23.52-43.45,47.45-47.9,32.54-6.05,65.65,17.48,70.53,52.23.11.8.99,1.15,1.63.67,10.57-8.02,24.07-10.52,35.39-5.99,15.74,6.3,25.38,25.42,20.75,45.01-.23.96.56,1.8,1.54,1.63,21.35-3.8,42.22,9.16,47.99,29.17,6.36,22.05-4.21,51.42-30.95,52.12l-210.36-.47c-33.25-.73-50.72-37.4-43.59-65.38,6.19-24.28,31.04-41.7,58.44-38.93.4.04.72-.29.66-.69-1.1-7.34-.86-14.58.53-21.45Z"/>
    <polygon class="cls-1" points="358.37 240.51 339.41 302.79 358.37 302.79 333.99 374.13 397.96 280.48 372.31 280.48 389.34 240.51 358.37 240.51"/>
    <polygon class="cls-1" points="422.74 255.85 403.78 318.12 422.74 318.12 398.36 389.47 462.34 295.81 436.68 295.81 453.71 255.85 422.74 255.85"/>
    <polygon class="cls-1" points="499.35 237.78 480.38 300.05 499.35 300.05 474.96 371.4 538.94 277.74 513.28 277.74 530.32 237.78 499.35 237.78"/>
  </g>
</svg>