<?xml version="1.0" encoding="UTF-8"?>
<svg id="Layer_1" data-name="Layer 1" xmlns="http://www.w3.org/2000/svg" viewBox="0 0 742.61 405.2">
  <defs>
    <style>
      .cls-1 {
        fill: #6b6b6e;
        stroke-width: 0px;
      }
    </style>
  </defs>
  <path class="cls-1" d="m365.65,81.09c8.02-39.71,39.05-72.13,78.77-79.51,54.02-10.05,108.98,29.02,117.08,86.71.19,1.32,1.64,1.92,2.71,1.11,17.54-13.31,39.96-17.47,58.76-9.95,26.13,10.45,42.13,42.2,34.45,74.73-.38,1.6.94,2.99,2.56,2.7,35.44-6.3,70.09,15.2,79.67,48.42,10.56,36.6-6.99,85.37-51.39,86.52l-349.22-.79c-55.2-1.21-84.21-62.09-72.36-108.54,10.28-40.3,51.53-69.22,97.02-64.64.66.07,1.19-.49,1.09-1.15-1.83-12.19-1.43-24.2.88-35.61Z"/>
  <path class="cls-1" d="m120.61,49.32c3.41-16.88,16.6-30.65,33.48-33.79,22.96-4.27,46.32,12.33,49.76,36.85.08.56.7.81,1.15.47,7.46-5.66,16.98-7.42,24.97-4.23,11.1,4.44,17.9,17.93,14.64,31.76-.16.68.4,1.27,1.09,1.15,15.06-2.68,29.79,6.46,33.86,20.58,4.49,15.56-2.97,36.28-21.84,36.77l-148.42-.33c-23.46-.51-35.79-26.39-30.75-46.13,4.37-17.13,21.9-29.42,41.23-27.47.28.03.51-.21.46-.49-.78-5.18-.61-10.28.37-15.13Z"/>
  <path class="cls-1" d="m65.28,269.81c5.15-25.51,25.09-46.34,50.61-51.09,34.71-6.46,70.02,18.64,75.22,55.71.12.85,1.06,1.23,1.74.71,11.27-8.55,25.67-11.22,37.75-6.39,16.79,6.71,27.07,27.11,22.13,48.01-.24,1.03.6,1.92,1.64,1.74,22.77-4.05,45.03,9.77,51.18,31.11,6.78,23.52-4.49,54.85-33.02,55.59l-224.37-.51c-35.47-.78-54.1-39.89-46.49-69.74,6.6-25.9,33.1-44.47,62.34-41.53.43.04.77-.31.7-.74-1.18-7.83-.92-15.55.56-22.88Z"/>
</svg>