<?xml version="1.0" encoding="UTF-8"?>
<svg id="Layer_1" data-name="Layer 1" xmlns="http://www.w3.org/2000/svg" viewBox="0 0 73.54 44.93">
  <defs>
    <style>
      .cls-1 {
        fill: none;
        stroke: #6b6b6e;
        stroke-miterlimit: 10;
        stroke-width: 2px;
      }
    </style>
  </defs>
  <path class="cls-1" d="m0,1c4.08,0,4.08,6,8.17,6S12.25,1,16.34,1s4.08,6,8.17,6,4.08-6,8.17-6,4.09,6,8.17,6,4.09-6,8.17-6,4.09,6,8.17,6,4.09-6,8.18-6,4.09,6,8.18,6"/>
  <path class="cls-1" d="m0,13.69c4.08,0,4.08,6,8.17,6s4.08-6,8.17-6,4.08,6,8.17,6,4.08-6,8.17-6,4.09,6,8.17,6,4.09-6,8.17-6,4.09,6,8.17,6,4.09-6,8.18-6,4.09,6,8.18,6"/>
  <path class="cls-1" d="m0,26.24c4.08,0,4.08,6,8.17,6s4.08-6,8.17-6,4.08,6,8.17,6,4.08-6,8.17-6,4.09,6,8.17,6,4.09-6,8.17-6,4.09,6,8.17,6,4.09-6,8.18-6,4.09,6,8.18,6"/>
  <path class="cls-1" d="m0,37.93c4.08,0,4.08,6,8.17,6s4.08-6,8.17-6,4.08,6,8.17,6,4.08-6,8.17-6,4.09,6,8.17,6,4.09-6,8.17-6,4.09,6,8.17,6,4.09-6,8.18-6,4.09,6,8.18,6"/>
</svg>