<?xml version="1.0" encoding="UTF-8"?>
<svg id="Layer_1" data-name="Layer 1" xmlns="http://www.w3.org/2000/svg" viewBox="0 0 647.92 400">
  <defs>
    <style>
      .cls-1 {
        fill: #7d6833;
      }

      .cls-1, .cls-2 {
        stroke-width: 0px;
      }

      .cls-2 {
        fill: #6b6b6e;
      }
    </style>
  </defs>
  <circle class="cls-1" cx="368.32" cy="175.42" r="175.42"/>
  <path class="cls-2" d="m78.2,237.82c6.17-30.56,30.06-55.51,60.62-61.19,41.79-7.77,84.3,22.64,90.2,67.41.09.7.89,1.02,1.45.59,13.58-10.58,31.1-13.94,45.76-8.07,20.27,8.11,32.62,32.86,26.37,58.1-.23.92.59,1.77,1.52,1.6,27.48-5.2,54.48,11.41,61.9,37.15,8.12,28.17-5.38,65.7-39.55,66.59l-268.77-.61c-42.48-.93-64.81-47.79-55.69-83.54,7.95-31.17,39.96-53.49,75.17-49.69.25.03.45-.19.42-.44-1.5-9.55-1.21-18.97.6-27.9Z"/>
  <path class="cls-2" d="m427.68,190.46c4.69-23.2,22.82-42.14,46.02-46.45,31.76-5.91,64.08,17.25,68.49,51.31.06.47.6.69.97.4,10.32-8.1,23.68-10.68,34.85-6.21,15.41,6.16,24.79,25.01,19.99,44.2-.17.66.4,1.26,1.07,1.13,20.9-4.01,41.45,8.61,47.1,28.18,6.17,21.39-4.08,49.87-30.02,50.55l-204.03-.46c-32.25-.71-49.2-36.28-42.28-63.41,6.04-23.7,30.41-40.65,57.18-37.71.13.01.24-.1.21-.23-1.16-7.29-.94-14.48.43-21.3Z"/>
  <path class="cls-2" d="m207.19,72.85c3.09-15.28,15.03-27.75,30.31-30.6,21-3.91,42.37,11.48,45.15,34.05.02.2.25.29.4.16,6.83-5.46,15.73-7.23,23.16-4.25,10.22,4.09,16.41,16.64,13.1,29.37-.08.32.19.61.51.54,13.85-2.8,27.54,5.54,31.28,18.51,4.06,14.09-2.69,32.85-19.77,33.29l-134.38-.3c-21.24-.46-32.4-23.89-27.85-41.77,3.99-15.66,20.13-26.85,37.83-24.82-.79-4.86-.66-9.65.26-14.2Z"/>
</svg>