<?xml version="1.0" encoding="UTF-8"?>
<svg id="Layer_1" data-name="Layer 1" xmlns="http://www.w3.org/2000/svg" viewBox="0 0 74.32 74.31">
  <defs>
    <style>
      .cls-1 {
        fill: none;
        stroke: #6b6b6e;
        stroke-linecap: round;
        stroke-miterlimit: 10;
        stroke-width: 5px;
      }

      .cls-2 {
        fill: #6b6b6e;
        stroke-width: 0px;
      }
    </style>
  </defs>
  <path class="cls-2" d="m37.16,32.28c2.69,0,4.88,2.19,4.88,4.88s-2.19,4.88-4.88,4.88-4.88-2.19-4.88-4.88,2.19-4.88,4.88-4.88m0-5c-5.46,0-9.88,4.42-9.88,9.88s4.42,9.88,9.88,9.88,9.88-4.42,9.88-9.88-4.42-9.88-9.88-9.88h0Z"/>
  <line class="cls-1" x1="37.16" y1="27.28" x2="37.16" y2="2.5"/>
  <line class="cls-1" x1="37.91" y1="10.68" x2="44.36" y2="4.23"/>
  <line class="cls-1" x1="36.42" y1="10.68" x2="29.97" y2="4.23"/>
  <line class="cls-1" x1="27.28" y1="37.16" x2="2.5" y2="37.16"/>
  <line class="cls-1" x1="10.68" y1="37.91" x2="4.23" y2="44.36"/>
  <line class="cls-1" x1="10.68" y1="36.42" x2="4.23" y2="29.97"/>
  <line class="cls-1" x1="31.12" y1="30.92" x2="13.6" y2="13.39"/>
  <line class="cls-1" x1="18.85" y1="19.7" x2="9.73" y2="19.7"/>
  <line class="cls-1" x1="19.9" y1="18.65" x2="19.9" y2="9.53"/>
  <line class="cls-1" x1="47.04" y1="37.16" x2="71.82" y2="37.16"/>
  <line class="cls-1" x1="63.65" y1="37.91" x2="70.1" y2="44.36"/>
  <line class="cls-1" x1="63.65" y1="36.42" x2="70.1" y2="29.97"/>
  <line class="cls-1" x1="43.2" y1="30.92" x2="60.73" y2="13.39"/>
  <line class="cls-1" x1="55.47" y1="19.7" x2="64.59" y2="19.7"/>
  <line class="cls-1" x1="54.42" y1="18.65" x2="54.42" y2="9.53"/>
  <line class="cls-1" x1="37.14" y1="47.03" x2="37.14" y2="71.81"/>
  <line class="cls-1" x1="36.39" y1="63.64" x2="29.94" y2="70.09"/>
  <line class="cls-1" x1="37.88" y1="63.64" x2="44.33" y2="70.09"/>
  <line class="cls-1" x1="43.18" y1="43.4" x2="60.7" y2="60.92"/>
  <line class="cls-1" x1="55.44" y1="54.62" x2="64.57" y2="54.62"/>
  <line class="cls-1" x1="54.39" y1="55.67" x2="54.39" y2="64.79"/>
  <line class="cls-1" x1="31.12" y1="43.4" x2="13.6" y2="60.92"/>
  <line class="cls-1" x1="18.85" y1="54.62" x2="9.73" y2="54.62"/>
  <line class="cls-1" x1="19.9" y1="55.67" x2="19.9" y2="64.79"/>
</svg>